<mxfile host="app.diagrams.net" modified="2021-07-08T10:27:00.424Z" agent="5.0 (Windows NT 10.0; Win64; x64) AppleWebKit/537.36 (KHTML, like Gecko) Chrome/90.0.4430.212 Safari/537.36" etag="SnBVBLwnpW-R19pU0kQQ" version="14.8.5" type="github">
  <diagram id="6D3YFbLRLACvCleUi_oQ" name="Page-1">
    <mxGraphModel dx="1080" dy="484" grid="1" gridSize="10" guides="1" tooltips="1" connect="1" arrows="1" fold="1" page="1" pageScale="1" pageWidth="850" pageHeight="1100" math="0" shadow="0">
      <root>
        <mxCell id="0" />
        <mxCell id="1" parent="0" />
        <mxCell id="_qEDWN-4wOghDL8Nv2NW-1" value="Auth WebUI integration with EPSS" style="rounded=1;whiteSpace=wrap;html=1;fontSize=16;" vertex="1" parent="1">
          <mxGeometry x="70" y="20" width="190" height="60" as="geometry" />
        </mxCell>
        <mxCell id="_qEDWN-4wOghDL8Nv2NW-3" value="&lt;p style=&quot;line-height: 120%&quot;&gt;EPSS&lt;/p&gt;" style="rounded=1;whiteSpace=wrap;html=1;fontSize=16;align=center;" vertex="1" parent="1">
          <mxGeometry x="60" y="110" width="170" height="260" as="geometry" />
        </mxCell>
        <mxCell id="_qEDWN-4wOghDL8Nv2NW-4" value="" style="rounded=1;whiteSpace=wrap;html=1;fontSize=16;arcSize=0;" vertex="1" parent="1">
          <mxGeometry x="310" y="110" width="360" height="260" as="geometry" />
        </mxCell>
      </root>
    </mxGraphModel>
  </diagram>
</mxfile>
